<svg xmlns="http://www.w3.org/2000/svg" width="24" height="24" viewBox="0 0 24 24">
  <g id="calendar-three" transform="translate(-39 -1)">
    <path id="Path_2029" data-name="Path 2029" d="M52.5,11h-5v4h5Z" transform="translate(1 1.111)" fill="#233e8b"/>
    <path id="Path_2030" data-name="Path 2030" d="M48.273,2.091a1.091,1.091,0,0,0-2.182,0V3.182H41.182A2.182,2.182,0,0,0,39,5.364V22.818A2.182,2.182,0,0,0,41.182,25H60.818A2.182,2.182,0,0,0,63,22.818V5.364a2.182,2.182,0,0,0-2.182-2.182H55.909V2.091a1.091,1.091,0,0,0-2.182,0V3.182H48.273ZM46.091,18.455H41.182V16.273h4.909V11.909H41.182V9.727H60.818v2.182H55.909v4.364h4.909v2.182H55.909v4.364H53.727V18.455H48.273v4.364H46.091Z" fill="#233e8b" fill-rule="evenodd"/>
  </g>
</svg>
