<svg xmlns="http://www.w3.org/2000/svg" xmlns:xlink="http://www.w3.org/1999/xlink" width="26.582" height="30.002" viewBox="0 0 26.582 30.002">
  <defs>
    <clipPath id="clip-path">
      <path id="path18" d="M933.216-2017.062a.557.557,0,0,1,.556.557.557.557,0,0,1-.556.556.557.557,0,0,1-.556-.556A.557.557,0,0,1,933.216-2017.062Zm0,2.3a1.744,1.744,0,0,0,1.742-1.742,1.744,1.744,0,0,0-1.742-1.742,1.744,1.744,0,0,0-1.742,1.742A1.744,1.744,0,0,0,933.216-2014.764Z" transform="translate(-931.474 2018.248)" fill="#161616"/>
    </clipPath>
    <clipPath id="clip-path-2">
      <path id="path38" d="M382.013-2565.575a.637.637,0,0,1,.62-.494h10.826a.637.637,0,0,1,.62.494Zm-2.566-20.661a2.257,2.257,0,0,1,2.255,2.255,2.257,2.257,0,0,1-2.255,2.255,2.257,2.257,0,0,1-2.255-2.255A2.257,2.257,0,0,1,379.447-2586.236Zm2.377-2.479h0l1.877-.753h0l1.168-.469,4.043,10.069-3.253,1.306-.068.027h0l-1.271.51-1.784-4.442a3.42,3.42,0,0,0,.352-1.514,3.446,3.446,0,0,0-2.257-3.231l-.354-.882Zm.461-2.939.45,1.3-.818.329-.538-1.233Zm6.06,14.049-2.05.823a.353.353,0,0,1-.131.025.351.351,0,0,1-.327-.221.353.353,0,0,1,.2-.458l2.05-.823a.352.352,0,0,1,.131-.025.351.351,0,0,1,.327.221A.353.353,0,0,1,388.345-2577.6Zm-2.8,8.077-.272-.764,7.49-2.663.272.765Zm9.729,4.018a1.823,1.823,0,0,0-1.819-1.745h-4.878a4.974,4.974,0,0,0,1.626-2.67l3.788-1.347a.593.593,0,0,0,.36-.757l-.669-1.882a.591.591,0,0,0-.3-.337.593.593,0,0,0-.453-.023l-8.608,3.06a.594.594,0,0,0-.337.3.6.6,0,0,0-.023.454l.669,1.882a.593.593,0,0,0,.559.395.59.59,0,0,0,.2-.034l3.4-1.207a3.79,3.79,0,0,1-3.42,2.164h-2.731a1.824,1.824,0,0,0-1.816,1.68h-3.231a3.08,3.08,0,0,0-1.505.372.589.589,0,0,0-.142-.145,10,10,0,0,1-4.191-8.126v-.128a9.974,9.974,0,0,1,4.8-8.525,3.44,3.44,0,0,0,2.9,1.585,3.426,3.426,0,0,0,2.247-.839l1.551,3.862a1.122,1.122,0,0,0,1.023.711,1.027,1.027,0,0,0,.376-.071,1.545,1.545,0,0,0,.092.343,1.531,1.531,0,0,0,1.427.965,1.529,1.529,0,0,0,.573-.111l2.05-.823a1.54,1.54,0,0,0,.854-2,1.563,1.563,0,0,0-.169-.312,1.052,1.052,0,0,0,.58-.605,1.137,1.137,0,0,0-.013-.823l-4.1-10.2a1.122,1.122,0,0,0-1.023-.711,1.025,1.025,0,0,0-.384.074l-.7.281-.64-1.844a.593.593,0,0,0-.321-.348.593.593,0,0,0-.474,0l-2.039.878a.593.593,0,0,0-.317.327.593.593,0,0,0,.008.455l.762,1.747-1.089.437a1.094,1.094,0,0,0-.576,1.433l.12.3a3.445,3.445,0,0,0-3.264,3.436,3.439,3.439,0,0,0,.083.751,11.161,11.161,0,0,0-5.529,9.629v.128a11.186,11.186,0,0,0,4.686,9.09,1.585,1.585,0,0,0-.189.749.593.593,0,0,0,.593.593.593.593,0,0,0,.593-.593c0-.356.574-.754,1.341-.754h17.03c.768,0,1.341.4,1.341.754a.593.593,0,0,0,.593.593.593.593,0,0,0,.593-.593A2.08,2.08,0,0,0,395.278-2565.51Z" transform="translate(-370.562 2593.043)" fill="#161616"/>
    </clipPath>
  </defs>
  <g id="g10" transform="translate(-370.562 2593.043)">
    <g id="g12" transform="translate(370.562 -2593.043)">
      <g id="g14" transform="translate(7.143 7.32)">
        <g id="g16" clip-path="url(#clip-path)">
          <path id="path32" d="M933.216-2017.062a.557.557,0,0,1,.556.557.557.557,0,0,1-.556.556.557.557,0,0,1-.556-.556A.557.557,0,0,1,933.216-2017.062Zm0,2.3a1.744,1.744,0,0,0,1.742-1.742,1.744,1.744,0,0,0-1.742-1.742,1.744,1.744,0,0,0-1.742,1.742,1.744,1.744,0,0,0,1.742,1.742" transform="translate(-931.474 2018.248)" fill="#161616"/>
        </g>
      </g>
      <g id="g34" transform="translate(0 0)">
        <g id="g36" clip-path="url(#clip-path-2)">
          <path id="path52" d="M382.013-2565.575a.637.637,0,0,1,.62-.494h10.826a.637.637,0,0,1,.62.494Zm-2.566-20.661a2.257,2.257,0,0,1,2.255,2.255,2.257,2.257,0,0,1-2.255,2.255,2.257,2.257,0,0,1-2.255-2.255A2.257,2.257,0,0,1,379.447-2586.236Zm2.377-2.479h0l1.877-.753h0l1.168-.469,4.043,10.069-3.253,1.306-.068.027h0l-1.271.51-1.784-4.442a3.42,3.42,0,0,0,.352-1.514,3.446,3.446,0,0,0-2.257-3.231l-.354-.882Zm.461-2.939.45,1.3-.818.329-.538-1.233Zm6.06,14.049-2.05.823a.353.353,0,0,1-.131.025.351.351,0,0,1-.327-.221.353.353,0,0,1,.2-.458l2.05-.823a.352.352,0,0,1,.131-.025.351.351,0,0,1,.327.221A.353.353,0,0,1,388.345-2577.6Zm-2.8,8.077-.272-.764,7.49-2.663.272.765Zm9.729,4.018a1.823,1.823,0,0,0-1.819-1.745h-4.878a4.974,4.974,0,0,0,1.626-2.67l3.788-1.347a.593.593,0,0,0,.36-.757l-.669-1.882a.591.591,0,0,0-.3-.337.593.593,0,0,0-.453-.023l-8.608,3.06a.594.594,0,0,0-.337.3.6.6,0,0,0-.023.454l.669,1.882a.593.593,0,0,0,.559.395.59.59,0,0,0,.2-.034l3.4-1.207a3.79,3.79,0,0,1-3.42,2.164h-2.731a1.824,1.824,0,0,0-1.816,1.68h-3.231a3.08,3.08,0,0,0-1.505.372.589.589,0,0,0-.142-.145,10,10,0,0,1-4.191-8.126v-.128a9.974,9.974,0,0,1,4.8-8.525,3.44,3.44,0,0,0,2.9,1.585,3.426,3.426,0,0,0,2.247-.839l1.551,3.862a1.122,1.122,0,0,0,1.023.711,1.027,1.027,0,0,0,.376-.071,1.545,1.545,0,0,0,.092.343,1.531,1.531,0,0,0,1.427.965,1.529,1.529,0,0,0,.573-.111l2.05-.823a1.54,1.54,0,0,0,.854-2,1.563,1.563,0,0,0-.169-.312,1.052,1.052,0,0,0,.58-.605,1.137,1.137,0,0,0-.013-.823l-4.1-10.2a1.122,1.122,0,0,0-1.023-.711,1.025,1.025,0,0,0-.384.074l-.7.281-.64-1.844a.593.593,0,0,0-.321-.348.593.593,0,0,0-.474,0l-2.039.878a.593.593,0,0,0-.317.327.593.593,0,0,0,.008.455l.762,1.747-1.089.437a1.094,1.094,0,0,0-.576,1.433l.12.3a3.445,3.445,0,0,0-3.264,3.436,3.439,3.439,0,0,0,.083.751,11.161,11.161,0,0,0-5.529,9.629v.128a11.186,11.186,0,0,0,4.686,9.09,1.585,1.585,0,0,0-.189.749.593.593,0,0,0,.593.593.593.593,0,0,0,.593-.593c0-.356.574-.754,1.341-.754h17.03c.768,0,1.341.4,1.341.754a.593.593,0,0,0,.593.593.593.593,0,0,0,.593-.593,2.08,2.08,0,0,0-1.865-1.875" transform="translate(-370.562 2593.043)" fill="#161616"/>
        </g>
      </g>
    </g>
  </g>
</svg>
