<svg xmlns="http://www.w3.org/2000/svg" xmlns:xlink="http://www.w3.org/1999/xlink" width="80" height="80" viewBox="0 0 80 80">
  <defs>
    <filter id="Ellipse_652" x="0" y="0" width="80" height="80" filterUnits="userSpaceOnUse">
      <feOffset dy="6" input="SourceAlpha"/>
      <feGaussianBlur stdDeviation="6" result="blur"/>
      <feFlood flood-color="#1eae98" flood-opacity="0.6"/>
      <feComposite operator="in" in2="blur"/>
      <feComposite in="SourceGraphic"/>
    </filter>
  </defs>
  <g id="Group_1194" data-name="Group 1194" transform="translate(-3395 -761)">
    <g transform="matrix(1, 0, 0, 1, 3395, 761)" filter="url(#Ellipse_652)">
      <circle id="Ellipse_652-2" data-name="Ellipse 652" cx="22" cy="22" r="22" transform="translate(18 12)" fill="#1eae98"/>
    </g>
    <path id="Icon_awesome-filter" data-name="Icon awesome-filter" d="M17.155,0H.845a.844.844,0,0,0-.6,1.44l6.5,6.5v7.244a.844.844,0,0,0,.36.691l2.813,1.968a.844.844,0,0,0,1.328-.691V7.943l6.5-6.5A.844.844,0,0,0,17.155,0Z" transform="translate(3426 786)" fill="#f6f6f6"/>
  </g>
</svg>
