<svg xmlns="http://www.w3.org/2000/svg" width="12.025" height="32.949" viewBox="0 0 12.025 32.949">
  <g id="Group_1714" data-name="Group 1714" transform="translate(-829.515 -11769.268)">
    <path id="path20" d="M420.12-1416.37v11.153c0,1.083-1.728,1.967-2.81,1.967s-2.81-.883-2.81-1.967v-11.153a3.385,3.385,0,0,0-2.623,3.285v8.993a3.382,3.382,0,0,0,3.372,3.372h4.122a3.382,3.382,0,0,0,3.372-3.372v-8.993a3.385,3.385,0,0,0-2.622-3.285" transform="translate(418.217 13186.218)" fill="#b5e8d2"/>
    <path id="path22" d="M411.138-1418.311a2.813,2.813,0,0,0-1.463,2.447v8.993a2.8,2.8,0,0,0,2.792,2.792h4.121a2.8,2.8,0,0,0,2.792-2.792v-8.993a2.813,2.813,0,0,0-1.462-2.447V-1408c0,1.479-2.025,2.548-3.39,2.548s-3.39-1.069-3.39-2.548Zm5.451,15.392h-4.122a3.956,3.956,0,0,1-3.952-3.952v-8.993a3.981,3.981,0,0,1,3.073-3.848.572.572,0,0,1,.491.11.582.582,0,0,1,.219.453V-1408c0,.644,1.349,1.387,2.23,1.387s2.23-.743,2.23-1.387v-11.153a.582.582,0,0,1,.219-.453.572.572,0,0,1,.491-.11,3.981,3.981,0,0,1,3.073,3.848v8.993a3.956,3.956,0,0,1-3.952,3.952" transform="translate(421 13188.996)" fill="#272425"/>
    <path id="path24" d="M414.5-1307.152V-1318.3c0-1.082,1.728-1.967,2.81-1.967s2.81.885,2.81,1.967v11.153a3.383,3.383,0,0,0,2.623-3.285v-8.992a3.382,3.382,0,0,0-3.372-3.372H415.25a3.382,3.382,0,0,0-3.372,3.372v8.992a3.383,3.383,0,0,0,2.622,3.285" transform="translate(418.217 13108.79)" fill="#b5e8d2"/>
    <path id="path26" d="M412.467-1325a2.8,2.8,0,0,0-2.792,2.792v8.992a2.816,2.816,0,0,0,1.463,2.449v-10.317c0-1.478,2.025-2.547,3.39-2.547s3.39,1.07,3.39,2.547v10.317a2.816,2.816,0,0,0,1.462-2.449v-8.992a2.8,2.8,0,0,0-2.792-2.792Zm-.749,15.649a.569.569,0,0,1-.13-.015,3.984,3.984,0,0,1-3.073-3.85v-8.992a3.956,3.956,0,0,1,3.952-3.952h4.122a3.956,3.956,0,0,1,3.952,3.952v8.992a3.984,3.984,0,0,1-3.073,3.85.579.579,0,0,1-.491-.112.58.58,0,0,1-.219-.453v-11.153c0-.643-1.349-1.387-2.23-1.387s-2.23.744-2.23,1.387v11.153a.579.579,0,0,1-.219.453.579.579,0,0,1-.361.126" transform="translate(421 13111.572)" fill="#272425"/>
    <path id="path28" d="M431.961-1399.855H427.82a.742.742,0,0,1-.74-.741v-.943a.74.74,0,0,1,.74-.738h4.141a.74.74,0,0,1,.74.738v.943a.742.742,0,0,1-.74.741" transform="translate(405.637 13174.556)" fill="#90cfbc"/>
    <path id="path30" d="M424.995-1404.489a.117.117,0,0,0-.116.115v1.031a.118.118,0,0,0,.116.117h4.228a.118.118,0,0,0,.116-.117v-1.031a.117.117,0,0,0-.116-.115Zm4.228,2.422h-4.228a1.278,1.278,0,0,1-1.276-1.277v-1.031a1.278,1.278,0,0,1,1.276-1.276h4.228a1.278,1.278,0,0,1,1.276,1.276v1.031a1.278,1.278,0,0,1-1.276,1.277" transform="translate(408.419 13177.347)" fill="#272425"/>
    <path id="path32" d="M431.961-1368.588H427.82a.74.74,0,0,1-.74-.738v-.943a.742.742,0,0,1,.74-.741h4.141a.742.742,0,0,1,.74.741v.943a.74.74,0,0,1-.74.738" transform="translate(405.637 13148.683)" fill="#90cfbc"/>
    <path id="path34" d="M424.995-1373.211a.118.118,0,0,0-.116.117v1.031a.117.117,0,0,0,.116.115h4.228a.117.117,0,0,0,.116-.115v-1.031a.118.118,0,0,0-.116-.117Zm4.228,2.424h-4.228a1.278,1.278,0,0,1-1.276-1.277v-1.031a1.278,1.278,0,0,1,1.276-1.276h4.228a1.278,1.278,0,0,1,1.276,1.276v1.031a1.278,1.278,0,0,1-1.276,1.277" transform="translate(408.419 13151.463)" fill="#272425"/>
    <path id="path36" d="M431.961-1289.064H427.82a.742.742,0,0,1-.74-.74v-.944a.742.742,0,0,1,.74-.74h4.141a.742.742,0,0,1,.74.74v.944a.742.742,0,0,1-.74.74" transform="translate(405.637 13082.877)" fill="#90cfbc"/>
    <path id="path38" d="M424.995-1293.689a.118.118,0,0,0-.116.116v1.031a.117.117,0,0,0,.116.116h4.228a.117.117,0,0,0,.116-.116v-1.031a.118.118,0,0,0-.116-.116Zm4.228,2.422h-4.228a1.277,1.277,0,0,1-1.276-1.276v-1.031a1.277,1.277,0,0,1,1.276-1.276h4.228a1.278,1.278,0,0,1,1.276,1.276v1.031a1.277,1.277,0,0,1-1.276,1.276" transform="translate(408.419 13085.66)" fill="#272425"/>
    <path id="path40" d="M431.961-1255.979H427.82a.741.741,0,0,1-.74-.739v-.944a.742.742,0,0,1,.74-.74h4.141a.742.742,0,0,1,.74.74v.944a.741.741,0,0,1-.74.739" transform="translate(405.637 13055.5)" fill="#90cfbc"/>
    <path id="path42" d="M424.995-1260.6a.118.118,0,0,0-.116.116v1.03a.118.118,0,0,0,.116.116h4.228a.118.118,0,0,0,.116-.116v-1.03a.118.118,0,0,0-.116-.116Zm4.228,2.423h-4.228a1.277,1.277,0,0,1-1.276-1.276v-1.03a1.277,1.277,0,0,1,1.276-1.276h4.228a1.278,1.278,0,0,1,1.276,1.276v1.03a1.278,1.278,0,0,1-1.276,1.276" transform="translate(408.419 13058.282)" fill="#272425"/>
  </g>
</svg>
