<svg xmlns="http://www.w3.org/2000/svg" width="35.839" height="34.606" viewBox="0 0 35.839 34.606">
  <g id="Group_1720" data-name="Group 1720" transform="translate(-780.531 -12043.047)">
    <path id="path252" d="M375.815-1077.617a15.7,15.7,0,0,1-.183-1.778,6.225,6.225,0,0,0,1-3.385,6.257,6.257,0,0,0-6.258-6.258,6.257,6.257,0,0,0-5.691,3.657c-1.933,3.081-1.78,11.4-1.78,11.4a6.969,6.969,0,0,0,6.969,6.969,6.969,6.969,0,0,0,6.969-6.969,6.936,6.936,0,0,0-1.023-3.635" transform="translate(418.337 13143.963)" fill="#1eae98"/>
    <path id="path254" d="M367.708-1091a5.573,5.573,0,0,0-5.053,3.247.688.688,0,0,1-.044.081c-1.8,2.869-1.674,10.932-1.673,11.013a6.277,6.277,0,0,0,6.268,6.28,6.274,6.274,0,0,0,6.267-6.267,6.254,6.254,0,0,0-.919-3.269.707.707,0,0,1-.095-.255,16.563,16.563,0,0,1-.191-1.857.7.7,0,0,1,.111-.412,5.533,5.533,0,0,0,.884-3A5.562,5.562,0,0,0,367.708-1091Zm-.5,22.025a7.68,7.68,0,0,1-7.671-7.671c-.006-.334-.132-8.484,1.863-11.732a6.979,6.979,0,0,1,6.31-4.025,6.967,6.967,0,0,1,6.959,6.959,6.936,6.936,0,0,1-.985,3.568c.027.451.075.9.142,1.351a7.656,7.656,0,0,1,1.052,3.879,7.68,7.68,0,0,1-7.671,7.671" transform="translate(421 13146.623)" fill="#272425"/>
    <path id="path256" d="M462.106-1077.617a15.712,15.712,0,0,0,.183-1.778,6.225,6.225,0,0,1-1-3.385,6.257,6.257,0,0,1,6.258-6.258,6.257,6.257,0,0,1,5.691,3.657c1.933,3.081,1.78,11.4,1.78,11.4a6.969,6.969,0,0,1-6.969,6.969,6.969,6.969,0,0,1-6.969-6.969,6.936,6.936,0,0,1,1.023-3.635" transform="translate(340.644 13143.963)" fill="#1eae98"/>
    <path id="path258" d="M464.89-1091a5.562,5.562,0,0,0-5.556,5.556,5.534,5.534,0,0,0,.884,3,.7.7,0,0,1,.111.412,16.554,16.554,0,0,1-.191,1.856.7.7,0,0,1-.094.256,6.254,6.254,0,0,0-.919,3.269,6.274,6.274,0,0,0,6.267,6.267,6.275,6.275,0,0,0,6.268-6.267c0-.094.127-8.157-1.673-11.026a.706.706,0,0,1-.044-.081A5.573,5.573,0,0,0,464.89-1091Zm.5,22.025a7.68,7.68,0,0,1-7.671-7.671,7.657,7.657,0,0,1,1.052-3.879c.067-.447.115-.9.142-1.351a6.937,6.937,0,0,1-.985-3.568,6.968,6.968,0,0,1,6.959-6.959,6.98,6.98,0,0,1,6.31,4.025c2,3.249,1.869,11.4,1.863,11.745a7.677,7.677,0,0,1-7.671,7.658" transform="translate(343.304 13146.624)" fill="#272425"/>
    <path id="path260" d="M428.9-1123.179l-3.673-3.08v-15.3a1.033,1.033,0,0,0-1.03-1.03,1.033,1.033,0,0,0-1.03,1.03v15.073a1.006,1.006,0,0,0-.151.1l-4.042,3.39a1.033,1.033,0,0,0-.127,1.451h0a1.033,1.033,0,0,0,1.451.127l3.751-3.145,3.528,2.958a1.033,1.033,0,0,0,1.451-.127,1.033,1.033,0,0,0-.127-1.451" transform="translate(374.258 13186.337)" fill="#1eae98"/>
    <path id="path262" d="M421.532-1144.546a.333.333,0,0,0-.328.328v15.481l-.353.2a.344.344,0,0,0-.049.031l-4.042,3.39a.327.327,0,0,0-.115.223.328.328,0,0,0,.074.24.327.327,0,0,0,.223.115.33.33,0,0,0,.24-.075l4.2-3.523,3.979,3.336a.324.324,0,0,0,.24.074.328.328,0,0,0,.223-.115.333.333,0,0,0-.041-.463l-3.924-3.29v-15.626a.333.333,0,0,0-.328-.328Zm-4.558,21.414q-.077,0-.155-.007a1.72,1.72,0,0,1-1.176-.611,1.72,1.72,0,0,1-.4-1.264,1.718,1.718,0,0,1,.611-1.176l3.942-3.306v-14.722a1.734,1.734,0,0,1,1.732-1.732,1.734,1.734,0,0,1,1.732,1.732v14.971l3.422,2.87a1.734,1.734,0,0,1,.215,2.44,1.721,1.721,0,0,1-1.176.611,1.718,1.718,0,0,1-1.265-.4l-3.077-2.58-3.3,2.767a1.716,1.716,0,0,1-1.109.4" transform="translate(376.919 13188.996)" fill="#272425"/>
    <path id="path264" d="M473.663-1050.981a.7.7,0,0,1-.626-.383.7.7,0,0,1,.306-.944,1.466,1.466,0,0,0,.812-.887,2.863,2.863,0,0,0-.351-1.923.7.7,0,0,1,.253-.959.7.7,0,0,1,.958.249,4.223,4.223,0,0,1,.49,3.021,2.866,2.866,0,0,1-1.524,1.75.7.7,0,0,1-.318.077" transform="translate(331.245 13117.958)" fill="#90cfbc"/>
    <path id="path266" d="M472.817-1057.346a.28.28,0,0,0-.141.038.282.282,0,0,0-.1.384,3.244,3.244,0,0,1,.39,2.254,1.886,1.886,0,0,1-1.025,1.143.281.281,0,0,0-.122.378.286.286,0,0,0,.378.123,2.456,2.456,0,0,0,1.311-1.493,3.862,3.862,0,0,0-.448-2.69A.279.279,0,0,0,472.817-1057.346Zm-.748,5.192a1.118,1.118,0,0,1-1-.613,1.124,1.124,0,0,1,.49-1.511,1.057,1.057,0,0,0,.6-.631,2.467,2.467,0,0,0-.311-1.593,1.125,1.125,0,0,1,.4-1.533,1.124,1.124,0,0,1,1.533.4,4.667,4.667,0,0,1,.531,3.352,3.274,3.274,0,0,1-1.737,2.007,1.126,1.126,0,0,1-.51.123" transform="translate(332.84 13119.552)" fill="#272425"/>
    <path id="path268" d="M403.64-1050.981a.7.7,0,0,0,.626-.383.7.7,0,0,0-.306-.944,1.466,1.466,0,0,1-.813-.887,2.865,2.865,0,0,1,.351-1.923.7.7,0,0,0-.252-.959.7.7,0,0,0-.958.249,4.222,4.222,0,0,0-.489,3.021,2.864,2.864,0,0,0,1.524,1.75.694.694,0,0,0,.318.077" transform="translate(387.648 13117.958)" fill="#90cfbc"/>
    <path id="path270" d="M401.3-1057.345a.28.28,0,0,0-.241.137,3.861,3.861,0,0,0-.448,2.69,2.456,2.456,0,0,0,1.31,1.492.286.286,0,0,0,.378-.122.282.282,0,0,0-.123-.378,1.887,1.887,0,0,1-1.025-1.143,3.246,3.246,0,0,1,.39-2.253.282.282,0,0,0-.1-.385A.279.279,0,0,0,401.3-1057.345Zm.749,5.192a1.129,1.129,0,0,1-.51-.123,3.276,3.276,0,0,1-1.737-2.008,4.667,4.667,0,0,1,.531-3.352,1.125,1.125,0,0,1,1.533-.4,1.126,1.126,0,0,1,.4,1.534,2.465,2.465,0,0,0-.311,1.593,1.057,1.057,0,0,0,.6.631,1.124,1.124,0,0,1,.49,1.511,1.119,1.119,0,0,1-1,.613" transform="translate(389.24 13119.551)" fill="#272425"/>
  </g>
</svg>
