<svg id="Group" xmlns="http://www.w3.org/2000/svg" width="15.264" height="14.799" viewBox="0 0 15.264 14.799">
  <path id="Path" d="M121.243,192.991a1.781,1.781,0,0,1,.117-1.469,1.724,1.724,0,0,1,1.166-.824,2.1,2.1,0,0,1,.432-.045,2.183,2.183,0,0,1,.362.03v-.646a2.768,2.768,0,0,0-.927.035A2.356,2.356,0,0,0,120.8,191.2a2.409,2.409,0,0,0-.168,1.99,3.033,3.033,0,0,0,2.824,2.02c.03,0,.06,0,.09,0a4.74,4.74,0,0,1-.158-.64A2.386,2.386,0,0,1,121.243,192.991Z" transform="translate(-120.496 -189.248)" fill="#1eae98"/>
  <path id="Path-2" data-name="Path" d="M886.917,191.2a2.355,2.355,0,0,0-1.589-1.132,2.768,2.768,0,0,0-.927-.035v.646a2.146,2.146,0,0,1,.8.015,1.722,1.722,0,0,1,1.166.824,1.78,1.78,0,0,1,.117,1.469,2.388,2.388,0,0,1-2.15,1.583,4.74,4.74,0,0,1-.158.64l.09,0a3.033,3.033,0,0,0,2.824-2.02A2.41,2.41,0,0,0,886.917,191.2Z" transform="translate(-871.96 -189.248)" fill="#1eae98"/>
  <path id="Compound_Path" data-name="Compound Path" d="M317.14,143.019v3.64a4.5,4.5,0,0,0,.075.822,4.444,4.444,0,0,0,.163.624,4.494,4.494,0,0,0,3.611,3v3.729h-1.313v.86h-1.218v1.279H324.8V155.69h-1.217v-.86h-1.313V151.1a4.485,4.485,0,0,0,3.849-4.444V142.17H317.14Zm3.939,2.3.592-1.821.592,1.821h1.915l-.329.239-1.22.886.592,1.821-1.549-1.125-1.549,1.125.592-1.821-1.311-.952-.238-.173Z" transform="translate(-313.996 -142.17)" fill="#1eae98"/>
</svg>
