<svg xmlns="http://www.w3.org/2000/svg" xmlns:xlink="http://www.w3.org/1999/xlink" width="74.99" height="87.5" viewBox="0 0 74.99 87.5">
  <defs>
    <linearGradient id="linear-gradient" x1="1.158" y1="-0.331" x2="-0.278" y2="3.412" gradientUnits="objectBoundingBox">
      <stop offset="0" stop-color="#233e8b"/>
      <stop offset="1" stop-color="#1eae98"/>
    </linearGradient>
  </defs>
  <g id="Icon_ionic-md-finger-print" data-name="Icon ionic-md-finger-print" transform="translate(-12.5 -6.25)">
    <path id="Path_12" data-name="Path 12" d="M15.254,40.156a2.737,2.737,0,0,1-2.383-4.1C16.348,30.2,26.914,16.5,50,16.5c10,0,18.77,2.656,26.055,7.891A44.2,44.2,0,0,1,87.012,35.9a2.714,2.714,0,0,1-.723,3.789,2.778,2.778,0,0,1-3.828-.723C79.551,34.746,70.723,21.934,50,21.934c-20.234,0-29.375,11.8-32.363,16.855A2.7,2.7,0,0,1,15.254,40.156Z" fill="url(#linear-gradient)"/>
    <path id="Path_13" data-name="Path 13" d="M61.621,93.75a2.721,2.721,0,0,1-.684-.078C44.2,89.473,37.949,72.559,37.7,71.855l-.039-.156c-.137-.488-3.5-12.09,1.66-18.887,2.363-3.105,5.957-4.687,10.7-4.687,4.414,0,7.6,1.387,9.785,4.258,1.8,2.344,2.52,5.234,3.223,8.027,1.465,5.8,2.52,8.848,8.613,9.16a6.29,6.29,0,0,0,5.43-2.793c2.7-3.672,3.164-9.668,1.133-14.941C75.586,45,66.328,32.129,50,32.129a28.633,28.633,0,0,0-18.516,6.523,30.059,30.059,0,0,0-9.258,13.633c-3.008,9.531.938,24.512.977,24.648a2.709,2.709,0,0,1-1.953,3.32,2.774,2.774,0,0,1-3.379-1.934c-.176-.684-4.395-16.66-.918-27.676a34.712,34.712,0,0,1,55.254-15.9A38.1,38.1,0,0,1,83.34,49.863c2.7,7.031,1.973,14.922-1.836,20.078A11.7,11.7,0,0,1,71.348,74.98c-10.43-.527-12.3-7.891-13.672-13.262-1.406-5.508-2.3-8.164-7.676-8.164-2.949,0-5.02.82-6.309,2.52-1.758,2.324-1.895,5.957-1.7,8.594a28.049,28.049,0,0,0,.918,5.43c.43,1.094,6.016,14.941,19.395,18.3A2.713,2.713,0,0,1,64.3,91.7,2.773,2.773,0,0,1,61.621,93.75Z" fill="url(#linear-gradient)"/>
    <path id="Path_14" data-name="Path 14" d="M40.137,92.5a2.781,2.781,0,0,1-2.012-.859,43.877,43.877,0,0,1-11.914-25v-.059c-.8-6.582.371-15.9,6.113-22.3,4.238-4.727,10.2-7.129,17.676-7.129,8.848,0,15.8,4.16,20.137,12.012a33.763,33.763,0,0,1,3.789,11.621,2.759,2.759,0,0,1-5.488.566h0a28.272,28.272,0,0,0-3.223-9.707c-3.359-6-8.477-9.043-15.234-9.043-5.84,0-10.41,1.777-13.555,5.293-4.531,5.059-5.41,12.852-4.785,18.008A38.515,38.515,0,0,0,42.129,87.93a2.7,2.7,0,0,1-.137,3.848A2.77,2.77,0,0,1,40.137,92.5Z" fill="url(#linear-gradient)"/>
    <path id="Path_15" data-name="Path 15" d="M71,84.668a22.713,22.713,0,0,1-14.824-4.9c-8.008-6.523-8.906-17.148-8.945-17.6a2.753,2.753,0,0,1,5.488-.43c.02.156.82,8.848,6.992,13.848,3.652,2.949,8.535,4.121,14.551,3.438a2.745,2.745,0,0,1,3.047,2.4,2.712,2.712,0,0,1-2.422,3.008A33.43,33.43,0,0,1,71,84.668Z" fill="url(#linear-gradient)"/>
    <path id="Path_16" data-name="Path 16" d="M75.625,12.227C73.34,10.723,65.234,6.25,50,6.25c-16,0-24.121,4.941-25.918,6.191a2.132,2.132,0,0,0-.332.254.06.06,0,0,1-.039.02h0a2.712,2.712,0,0,0,1.836,4.746,2.79,2.79,0,0,0,1.6-.508h0l-.02.02C27.207,16.914,34.219,11.7,50,11.7s22.793,5.234,22.871,5.273l-.02-.02.039-.039a2.737,2.737,0,1,0,2.734-4.687Z" fill="url(#linear-gradient)"/>
  </g>
</svg>
