<svg xmlns="http://www.w3.org/2000/svg" width="15.339" height="15.339" viewBox="0 0 15.339 15.339">
  <path id="Icon_ionic-md-call" data-name="Icon ionic-md-call" d="M18.987,15.152a10,10,0,0,1-3.025-.469.8.8,0,0,0-.852.213l-1.875,1.875A12.815,12.815,0,0,1,7.61,11.147L9.485,9.272A.888.888,0,0,0,9.7,8.42a9.268,9.268,0,0,1-.511-3.068A.855.855,0,0,0,8.335,4.5H5.352a.855.855,0,0,0-.852.852A14.475,14.475,0,0,0,18.987,19.839a.855.855,0,0,0,.852-.852V16A.855.855,0,0,0,18.987,15.152Z" transform="translate(-4.5 -4.5)" fill="#1eae98"/>
</svg>
