<svg xmlns="http://www.w3.org/2000/svg" width="27.897" height="27.897" viewBox="0 0 27.897 27.897">
  <g id="Icon_ionic-ios-chatbubbles" data-name="Icon ionic-ios-chatbubbles" transform="translate(-3.375 -3.375)">
    <path id="Path_2035" data-name="Path 2035" d="M29.281,21.655a1.625,1.625,0,0,1,.221-.818,2.258,2.258,0,0,1,.141-.208,10.866,10.866,0,0,0,1.851-6.055,11.407,11.407,0,0,0-11.648-11.2,11.568,11.568,0,0,0-11.42,8.912,10.777,10.777,0,0,0-.248,2.293A11.375,11.375,0,0,0,19.645,25.92,13.811,13.811,0,0,0,22.81,25.4c.758-.208,1.509-.483,1.7-.557a1.773,1.773,0,0,1,.624-.114,1.743,1.743,0,0,1,.677.134l3.8,1.348a.907.907,0,0,0,.262.067.534.534,0,0,0,.536-.536.861.861,0,0,0-.034-.181Z" transform="translate(-0.222 0)" fill="#161616"/>
    <path id="Path_2036" data-name="Path 2036" d="M21.515,26.918c-.241.067-.55.141-.885.215a12.377,12.377,0,0,1-2.28.3A11.375,11.375,0,0,1,6.882,16.094a12.678,12.678,0,0,1,.1-1.435c.04-.288.087-.577.154-.858.067-.3.148-.6.235-.9l-.536.476a9.98,9.98,0,0,0-3.46,7.5,9.868,9.868,0,0,0,1.663,5.5c.154.235.241.416.215.536s-.8,4.158-.8,4.158a.538.538,0,0,0,.181.516.546.546,0,0,0,.342.121.481.481,0,0,0,.194-.04L8.934,30.19a1.048,1.048,0,0,1,.8.013,11.286,11.286,0,0,0,4.071.8,10.532,10.532,0,0,0,8.054-3.695s.215-.3.463-.644C22.078,26.757,21.8,26.844,21.515,26.918Z" transform="translate(0 -0.441)" fill="#161616"/>
  </g>
</svg>
