<svg xmlns="http://www.w3.org/2000/svg" width="14" height="14" viewBox="0 0 14 14">
  <path id="Icon_awesome-thumbs-up" data-name="Icon awesome-thumbs-up" d="M2.844,6.125H.656A.656.656,0,0,0,0,6.781v6.563A.656.656,0,0,0,.656,14H2.844a.656.656,0,0,0,.656-.656V6.781A.656.656,0,0,0,2.844,6.125ZM1.75,12.906a.656.656,0,1,1,.656-.656A.656.656,0,0,1,1.75,12.906ZM10.5,2.227c0,1.16-.71,1.81-.91,2.585h2.781A1.634,1.634,0,0,1,14,6.4a1.98,1.98,0,0,1-.532,1.345l0,0a2.284,2.284,0,0,1-.255,2.173,2.162,2.162,0,0,1-.448,2.044,1.452,1.452,0,0,1-.168,1.22c-.558.8-1.941.813-3.111.813H9.406a7.85,7.85,0,0,1-3.269-.867A4.3,4.3,0,0,0,4.7,12.69a.328.328,0,0,1-.322-.328V6.517a.328.328,0,0,1,.1-.233c1.083-1.07,1.549-2.2,2.437-3.093A3.312,3.312,0,0,0,7.6,1.58C7.725,1.074,7.979,0,8.531,0,9.188,0,10.5.219,10.5,2.227Z" fill="#1eae98"/>
</svg>
