<svg xmlns="http://www.w3.org/2000/svg" width="20.987" height="15.221" viewBox="0 0 20.987 15.221">
  <path id="Path_23" data-name="Path 23" d="M50.622,120.341V127.6a3.989,3.989,0,0,1,2.264,3.351,1.337,1.337,0,1,1-1.676,0c-.177-1.062-.816-1.876-1.554-1.876s-1.39.83-1.559,1.908a1.336,1.336,0,1,1-1.666-.073,3.978,3.978,0,0,1,2.26-3.311v-7.874c-.113-.022-.226-.042-.341-.059a6.71,6.71,0,0,1-6.207,0c-.072.011-.142.024-.213.037V125.9a2.541,2.541,0,1,1-1.932,0v-5.614a8.694,8.694,0,0,0-5.245,7.955v5.7a.951.951,0,0,0,.949.949h19.09a.951.951,0,0,0,.949-.949v-5.7A8.693,8.693,0,0,0,50.622,120.341Z" transform="translate(-34.752 -119.67)" fill="#161616"/>
</svg>
