<svg xmlns="http://www.w3.org/2000/svg" width="26.478" height="26.478" viewBox="0 0 26.478 26.478">
  <path id="Path_24" data-name="Path 24" d="M22.825,13.379l1.639-1.639a6.88,6.88,0,0,0-9.73-9.73L8.373,8.372,2.012,14.733a6.88,6.88,0,1,0,9.729,9.73l1.639-1.639a6.968,6.968,0,1,0,9.444-9.444ZM15.983,3.259a5.114,5.114,0,0,1,7.233,7.233l-2.21,2.21A6.943,6.943,0,0,0,15.249,14l-5-5ZM14.306,19.508a5.208,5.208,0,0,1,4.321-5.123V24.631A5.208,5.208,0,0,1,14.306,19.508Z" transform="translate(-0.001 0.001)" fill="#161616"/>
</svg>
