<svg xmlns="http://www.w3.org/2000/svg" width="16.1" height="11.564" viewBox="0 0 16.1 11.564">
  <path id="Path_2026" data-name="Path 2026" d="M9.05,5.542A7.126,7.126,0,0,1,15.5,9.782a7.126,7.126,0,0,1-6.455,4.24A7.126,7.126,0,0,1,2.6,9.782,7.126,7.126,0,0,1,9.05,5.542M9.05,4A8.677,8.677,0,0,0,1,9.782a8.677,8.677,0,0,0,8.05,5.782A8.677,8.677,0,0,0,17.1,9.782,8.677,8.677,0,0,0,9.05,4Zm0,3.855a1.93,1.93,0,0,1,0,3.855,1.93,1.93,0,0,1,0-3.855m0-1.542A3.39,3.39,0,0,0,5.757,9.782,3.39,3.39,0,0,0,9.05,13.251a3.39,3.39,0,0,0,3.293-3.469A3.39,3.39,0,0,0,9.05,6.313Z" transform="translate(-1 -4)" fill="#233e8b"/>
</svg>
