<svg xmlns="http://www.w3.org/2000/svg" width="18" height="18" viewBox="0 0 18 18">
  <g id="payments_black_24dp_1_" data-name="payments_black_24dp (1)" transform="translate(-0.309 -0.309)">
    <rect id="Rectangle_128" data-name="Rectangle 128" width="18" height="18" transform="translate(0.309 0.309)" fill="none"/>
    <path id="Path_2379" data-name="Path 2379" d="M14.964,11.758V5.552A1.556,1.556,0,0,0,13.412,4H2.552A1.556,1.556,0,0,0,1,5.552v6.206a1.556,1.556,0,0,0,1.552,1.552H13.412A1.556,1.556,0,0,0,14.964,11.758Zm-1.552,0H2.552V5.552H13.412Zm-5.43-5.43a2.327,2.327,0,1,0,2.327,2.327A2.324,2.324,0,0,0,7.982,6.327Zm10.085,0v8.533a1.556,1.556,0,0,1-1.552,1.552H3.327V14.861H16.515V6.327Z" transform="translate(-0.224 -0.897)" fill="#409690"/>
  </g>
</svg>
