<svg xmlns="http://www.w3.org/2000/svg" width="29.785" height="28.431" viewBox="0 0 29.785 28.431">
  <g id="Union" transform="translate(0 -0.5)">
    <path id="Path_2027" data-name="Path 2027" d="M0,1.854A1.354,1.354,0,0,1,1.354.5H28.431a1.354,1.354,0,0,1,1.354,1.354V27.017a1.363,1.363,0,0,1-.029.28,1.355,1.355,0,0,1-1.325,1.634H7.457a1.354,1.354,0,0,1,0-2.708h19.62V11.331H2.708v7.563a1.354,1.354,0,0,1-2.708,0ZM10.154,4.562a1.354,1.354,0,1,0,0,2.708H24.37a1.354,1.354,0,1,0,0-2.708ZM4.062,5.913A1.354,1.354,0,0,1,5.415,4.559h.677a1.354,1.354,0,0,1,0,2.708H5.415A1.354,1.354,0,0,1,4.062,5.913Z" transform="translate(0)" fill="#161616" fill-rule="evenodd"/>
    <path id="Path_2028" data-name="Path 2028" d="M18.538,11.9a1.354,1.354,0,0,1,1.9-.011l3.033,2.957a1.354,1.354,0,1,1-1.89,1.939l-2.077-2.024-4.5,4.492a1.354,1.354,0,0,1-1.893.02L9.621,15.923,2.316,23.3A1.354,1.354,0,1,1,.392,21.4l8.242-8.327a1.354,1.354,0,0,1,1.9-.025l3.5,3.35Z" transform="translate(0 3.893)" fill="#161616"/>
  </g>
</svg>
